<svg width="0" height="0" class="hidden">
    <symbol xmlns="http://www.w3.org/2000/svg" id="man1"><svg xmlns="http://www.w3.org/2000/svg" width="300" height="400">
        <g fill-rule="evenodd">
            <path d="M52.894 69.96c-17.507-.113-9.053 18.899-.906 19.472 56.421 12.318 92.34-11.637 131.425-9.525 20.679 2.05 53.824 11.04 61.514 15.63 1.638.978 3.978.741 4.995.2 8.34-4.393 7.713-25.104 4.358-36.853-.932-3.487-8.67-7.71-15.057.179-2.094 2.11-10.85.64-12.705-.625-8.379-5.713-31.444-11.186-43.558-8.082-46.229 9.757-82.747 26.55-130.066 19.604z"/>
            <g fill="#b93c3c" style="fill: var(--red-color)">
                <path d="M60.443 226.858c101.51 10.776 95.086-15.762 180.061-18.577 18.885-2.745 17.635-17.46-.449-16.017-90.368 2.243-58.78 34.94-177.693 16.092-28.997-5.176-24.264 14.567-1.92 18.502z"/>
                <path d="M151.707 183.66c1.312-3.925-7.997-10.182-13.22-3.473-4.83 7.48-6.263 12.156-10.86 17.42-1.958 2.393-2.24 7.725-.216 9.268 7.568 6.198 6.724 4.784 11.5 14.738l20.53-1.762c-6.52-8.59-7.597-7.835-10.131-16.424-1.165-9.327-.808-10.176 2.397-19.768zM177.5 145.697c-2.072-2.164-3.31-2.932-6.213 0l-15.392 15.541c-1.347 1.5-1.371 3.705-.263 4.97l9.17 8.834c4.353 4.252 5.463 7.314 2.9 12.335-3.42 9.617-5.987 19.368-6.097 24.708l21.18-3.487c-3.959-9.817-3.87-12.357 2.866-21.646 5.559-6.327 10.933-7.774 5.995-16.418zM199.904 226.053c-2.38 0-5.116.352-7.987.676-25.981 4.239-44.632 13.661-87.783 12.14-5.841.03-10.797 3.108-10.592 7.59.416 9.893 7.7 62.177 8.305 66.889.853 6.417 9.79 6.988 10.967 1.341.215-1.034.221-3.957.097-7.996.548-1.143 1.398-2.02 2.309-2.183l56.982-5.092c.58.007 1.015.545 1.32 1.33-.441 20.093-.684 39.742-.253 46.623.123 1.52.051 3.12 1.57 4.486 3.627 3.034 24.108 1.364 29.408-1.947 1.469-1.078 2-1.583 2.198-3.83-2.961-33.992-.668-77.217 1.605-110.873.597-7.453-2.911-9.155-8.146-9.154zm-26.98 16.763c5.651-1.389 2.021 15.829.087 15.877l-58.828 4.612c-5.127-1.025-4.88-13.066-1.422-13.229 26.638-.896 35.744-3.181 60.162-7.26zm-.13 29.153c1.706-.13 2.018 12.384-.38 12.586l-57.321 4.797c-4.101-1.151-4.352-11.962-.78-12.493z"/>
                <path d="M152.8 242.844l-19.232.634-5.291 90.56c-.752 10.292 4.492 20.61 11.24 20.763l18.743-6.547z"/>
                <path d="M91.707 351.464l.846 8.027c54.246 18.284 41.636-8.576 96.894-15.15l-.634-4.929c-42.242-2.987-64.353 13.18-97.106 12.052z"/>
                <path d="M86.527 292.03c-4.79-14.349-18.047-11.53-15.57.886 13.897 43.448 17.943 67.497 19.8 70.858 10.792 18.229 18.402 13.454 19.078-2.434.112-4.849-14.234-43.494-23.308-69.31z"/>
                <path d="M43.84 321.036c-8.36-1.305-7.6 9.084-3.317 11.288 59.847 26.467 123.838-8.866 177.967-5.691 2.058.369 5.312 1.564 8.294 3.202 9.557 5.048 3.734 19.51-.976 22.479-21.536 9.844-16.514.09-40.673 11.25-2.278 1.46-8.258 2.596-10.482 1.684-8.943-2.978-16.302-8.102-22.15-12.664l-11.189 5.646c6.906 8.6 17.1 12.671 25.541 16.371 6.747 3.214 14.126 2.854 19.029 3.006 25.108.345 48.589-9.297 60.403-10.756 3.458-.53 7.483-6.525 9.05-9.31 9.692-15.872 5.689-18.57-1.085-35.188-3.85-6.233-14.98-8.012-20.828-8.805-60.717-2.574-138.254 18.812-189.584 7.488z"/>
            </g>
        </g>
    </svg>
    </symbol>
    <symbol xmlns="http://www.w3.org/2000/svg" id="man2"><svg xmlns="http://www.w3.org/2000/svg" width="300" height="400">
        <g fill-rule="evenodd">
            <g fill="#b93c3c" style="fill: var(--red-color)">
                <path d="M60.443 226.858c101.51 10.776 95.086-15.762 180.061-18.577 18.885-2.745 17.635-17.46-.449-16.017-90.368 2.243-58.78 34.94-177.693 16.092-28.997-5.176-24.264 14.567-1.92 18.502z"/>
                <path d="M151.707 183.66c1.312-3.925-7.997-10.182-13.22-3.473-4.83 7.48-6.263 12.156-10.86 17.42-1.958 2.393-2.24 7.725-.216 9.268 7.568 6.198 6.724 4.784 11.5 14.738l20.53-1.762c-6.52-8.59-7.597-7.835-10.131-16.424-1.165-9.327-.808-10.176 2.397-19.768zM177.5 145.697c-2.072-2.164-3.31-2.932-6.213 0l-15.392 15.541c-1.347 1.5-1.371 3.705-.263 4.97l9.17 8.834c4.353 4.252 5.463 7.314 2.9 12.335-3.42 9.617-5.987 19.368-6.097 24.708l21.18-3.487c-3.959-9.817-3.87-12.357 2.866-21.646 5.559-6.327 10.933-7.774 5.995-16.418zM199.904 226.053c-2.38 0-5.116.352-7.987.676-25.981 4.239-44.632 13.661-87.783 12.14-5.841.03-10.797 3.108-10.592 7.59.416 9.893 7.7 62.177 8.305 66.889.853 6.417 9.79 6.988 10.967 1.341.215-1.034.221-3.957.097-7.996.548-1.143 1.398-2.02 2.309-2.183l56.982-5.092c.58.007 1.015.545 1.32 1.33-.441 20.093-.684 39.742-.253 46.623.123 1.52.051 3.12 1.57 4.486 3.627 3.034 24.108 1.364 29.408-1.947 1.469-1.078 2-1.583 2.198-3.83-2.961-33.992-.668-77.217 1.605-110.873.597-7.453-2.911-9.155-8.146-9.154zm-26.98 16.763c5.651-1.389 2.021 15.829.087 15.877l-58.828 4.612c-5.127-1.025-4.88-13.066-1.422-13.229 26.638-.896 35.744-3.181 60.162-7.26zm-.13 29.153c1.706-.13 2.018 12.384-.38 12.586l-57.321 4.797c-4.101-1.151-4.352-11.962-.78-12.493z"/>
                <path d="M152.8 242.844l-19.232.634-5.291 90.56c-.752 10.292 4.492 20.61 11.24 20.763l18.743-6.547z"/>
                <path d="M91.707 351.464l.846 8.027c54.246 18.284 41.636-8.576 96.894-15.15l-.634-4.929c-42.242-2.987-64.353 13.18-97.106 12.052z"/>
                <path d="M86.527 292.03c-4.79-14.349-18.047-11.53-15.57.886 13.897 43.448 17.943 67.497 19.8 70.858 10.792 18.229 18.402 13.454 19.078-2.434.112-4.849-14.234-43.494-23.308-69.31z"/>
                <path d="M43.84 321.036c-8.36-1.305-7.6 9.084-3.317 11.288 59.847 26.467 123.838-8.866 177.967-5.691 2.058.369 5.312 1.564 8.294 3.202 9.557 5.048 3.734 19.51-.976 22.479-21.536 9.844-16.514.09-40.673 11.25-2.278 1.46-8.258 2.596-10.482 1.684-8.943-2.978-16.302-8.102-22.15-12.664l-11.189 5.646c6.906 8.6 17.1 12.671 25.541 16.371 6.747 3.214 14.126 2.854 19.029 3.006 25.108.345 48.589-9.297 60.403-10.756 3.458-.53 7.483-6.525 9.05-9.31 9.692-15.872 5.689-18.57-1.085-35.188-3.85-6.233-14.98-8.012-20.828-8.805-60.717-2.574-138.254 18.812-189.584 7.488z"/>
            </g>
            <path d="M59.02 102.596c-15.912-3.454-14.93 14.041-.939 17.702 58.429 18.963 99.345-16.313 139.821-15.484 20.31 1.175 35.046 16.991 53.722 14.628 34.982-7.283 16.15-30.758-1.646-33.7-14.285-2.46-27.333-7.527-52.908-3.771-49.696 9.559-98.759 31.719-138.05 20.625zM98.82 46.893c-6.437 1.433-9.592 15.777.387 17.61 34.313-.094 73.546-13.36 112.424-18.667 6.64-1.364 7.75-14.503 8.194-19.04 1.47-7.125-3.421-9.18-9.243-7.885-38.857 9.785-72.906 22.044-111.762 27.982z"/>
        </g>
    </svg>
    </symbol>
    <symbol xmlns="http://www.w3.org/2000/svg" id="man3"><svg xmlns="http://www.w3.org/2000/svg" width="300" height="400">
        <g fill-rule="evenodd">
            <g fill="#b93c3c" style="fill: var(--red-color)">
                <path d="M60.443 226.858c101.51 10.776 95.086-15.762 180.061-18.577 18.885-2.745 17.635-17.46-.449-16.017-90.368 2.243-58.78 34.94-177.693 16.092-28.997-5.176-24.264 14.567-1.92 18.502z"/>
                <path d="M151.707 183.66c1.312-3.925-7.997-10.182-13.22-3.473-4.83 7.48-6.263 12.156-10.86 17.42-1.958 2.393-2.24 7.725-.216 9.268 7.568 6.198 6.724 4.784 11.5 14.738l20.53-1.762c-6.52-8.59-7.597-7.835-10.131-16.424-1.165-9.327-.808-10.176 2.397-19.768zM177.5 145.697c-2.072-2.164-3.31-2.932-6.213 0l-15.392 15.541c-1.347 1.5-1.371 3.705-.263 4.97l9.17 8.834c4.353 4.252 5.463 7.314 2.9 12.335-3.42 9.617-5.987 19.368-6.097 24.708l21.18-3.487c-3.959-9.817-3.87-12.357 2.866-21.646 5.559-6.327 10.933-7.774 5.995-16.418zM199.904 226.053c-2.38 0-5.116.352-7.987.676-25.981 4.239-44.632 13.661-87.783 12.14-5.841.03-10.797 3.108-10.592 7.59.416 9.893 7.7 62.177 8.305 66.889.853 6.417 9.79 6.988 10.967 1.341.215-1.034.221-3.957.097-7.996.548-1.143 1.398-2.02 2.309-2.183l56.982-5.092c.58.007 1.015.545 1.32 1.33-.441 20.093-.684 39.742-.253 46.623.123 1.52.051 3.12 1.57 4.486 3.627 3.034 24.108 1.364 29.408-1.947 1.469-1.078 2-1.583 2.198-3.83-2.961-33.992-.668-77.217 1.605-110.873.597-7.453-2.911-9.155-8.146-9.154zm-26.98 16.763c5.651-1.389 2.021 15.829.087 15.877l-58.828 4.612c-5.127-1.025-4.88-13.066-1.422-13.229 26.638-.896 35.744-3.181 60.162-7.26zm-.13 29.153c1.706-.13 2.018 12.384-.38 12.586l-57.321 4.797c-4.101-1.151-4.352-11.962-.78-12.493z"/>
                <path d="M152.8 242.844l-19.232.634-5.291 90.56c-.752 10.292 4.492 20.61 11.24 20.763l18.743-6.547z"/>
                <path d="M91.707 351.464l.846 8.027c54.246 18.284 41.636-8.576 96.894-15.15l-.634-4.929c-42.242-2.987-64.353 13.18-97.106 12.052z"/>
                <path d="M86.527 292.03c-4.79-14.349-18.047-11.53-15.57.886 13.897 43.448 17.943 67.497 19.8 70.858 10.792 18.229 18.402 13.454 19.078-2.434.112-4.849-14.234-43.494-23.308-69.31z"/>
                <path d="M43.84 321.036c-8.36-1.305-7.6 9.084-3.317 11.288 59.847 26.467 123.838-8.866 177.967-5.691 2.058.369 5.312 1.564 8.294 3.202 9.557 5.048 3.734 19.51-.976 22.479-21.536 9.844-16.514.09-40.673 11.25-2.278 1.46-8.258 2.596-10.482 1.684-8.943-2.978-16.302-8.102-22.15-12.664l-11.189 5.646c6.906 8.6 17.1 12.671 25.541 16.371 6.747 3.214 14.126 2.854 19.029 3.006 25.108.345 48.589-9.297 60.403-10.756 3.458-.53 7.483-6.525 9.05-9.31 9.692-15.872 5.689-18.57-1.085-35.188-3.85-6.233-14.98-8.012-20.828-8.805-60.717-2.574-138.254 18.812-189.584 7.488z"/>
            </g>
            <path d="M62.003 124.593c-15.658.145-14.692 16.46-.924 17.702 58.87 1.546 97.758-27.332 137.587-22.024 19.986 1.175 39.022 17.275 57.4 14.912 9.427-7.967 7.546-30.352-1.242-31.71-49.953-9.825-27.623-12.214-56.976-6.046-48.902 9.56-97.13 27.166-135.845 27.166zM89.348 31.846c-6.912 1.55-10.3 17.061.416 19.043 36.846 6.148 78.975-10.708 120.724-20.185 7.13-1.476 10.94-13.125 11.417-18.03 1.579-7.705-6.291-12.487-12.543-11.086-41.003 16.914-78.1 31.254-120.014 30.258zM89.528 76.214c-6.115 1.428-9.113 15.716.368 17.542 32.602 5.663 74.423-9.864 111.361-18.594 6.309-1.36 7.364-14.447 7.786-18.967 1.397-7.097-3.25-9.144-8.782-7.853-36.278 15.58-73.648 28.79-110.733 27.872z"/>
        </g>
    </svg>
    </symbol>
    <symbol xmlns="http://www.w3.org/2000/svg" id="man4"><svg xmlns="http://www.w3.org/2000/svg" width="300" height="400">
        <g fill-rule="evenodd">
            <g fill="#b93c3c" style="fill: var(--red-color)">
                <path d="M60.443 226.858c101.51 10.776 95.086-15.762 180.061-18.577 18.885-2.745 17.635-17.46-.449-16.017-90.368 2.243-58.78 34.94-177.693 16.092-28.997-5.176-24.264 14.567-1.92 18.502z"/>
                <path d="M151.707 183.66c1.312-3.925-7.997-10.182-13.22-3.473-4.83 7.48-6.263 12.156-10.86 17.42-1.958 2.393-2.24 7.725-.216 9.268 7.568 6.198 6.724 4.784 11.5 14.738l20.53-1.762c-6.52-8.59-7.597-7.835-10.131-16.424-1.165-9.327-.808-10.176 2.397-19.768zM177.5 145.697c-2.072-2.164-3.31-2.932-6.213 0l-15.392 15.541c-1.347 1.5-1.371 3.705-.263 4.97l9.17 8.834c4.353 4.252 5.463 7.314 2.9 12.335-3.42 9.617-5.987 19.368-6.097 24.708l21.18-3.487c-3.959-9.817-3.87-12.357 2.866-21.646 5.559-6.327 10.933-7.774 5.995-16.418zM199.904 226.053c-2.38 0-5.116.352-7.987.676-25.981 4.239-44.632 13.661-87.783 12.14-5.841.03-10.797 3.108-10.592 7.59.416 9.893 7.7 62.177 8.305 66.889.853 6.417 9.79 6.988 10.967 1.341.215-1.034.221-3.957.097-7.996.548-1.143 1.398-2.02 2.309-2.183l56.982-5.092c.58.007 1.015.545 1.32 1.33-.441 20.093-.684 39.742-.253 46.623.123 1.52.051 3.12 1.57 4.486 3.627 3.034 24.108 1.364 29.408-1.947 1.469-1.078 2-1.583 2.198-3.83-2.961-33.992-.668-77.217 1.605-110.873.597-7.453-2.911-9.155-8.146-9.154zm-26.98 16.763c5.651-1.389 2.021 15.829.087 15.877l-58.828 4.612c-5.127-1.025-4.88-13.066-1.422-13.229 26.638-.896 35.744-3.181 60.162-7.26zm-.13 29.153c1.706-.13 2.018 12.384-.38 12.586l-57.321 4.797c-4.101-1.151-4.352-11.962-.78-12.493z"/>
                <path d="M152.8 242.844l-19.232.634-5.291 90.56c-.752 10.292 4.492 20.61 11.24 20.763l18.743-6.547z"/>
                <path d="M91.707 351.464l.846 8.027c54.246 18.284 41.636-8.576 96.894-15.15l-.634-4.929c-42.242-2.987-64.353 13.18-97.106 12.052z"/>
                <path d="M86.527 292.03c-4.79-14.349-18.047-11.53-15.57.886 13.897 43.448 17.943 67.497 19.8 70.858 10.792 18.229 18.402 13.454 19.078-2.434.112-4.849-14.234-43.494-23.308-69.31z"/>
                <path d="M43.84 321.036c-8.36-1.305-7.6 9.084-3.317 11.288 59.847 26.467 123.838-8.866 177.967-5.691 2.058.369 5.312 1.564 8.294 3.202 9.557 5.048 3.734 19.51-.976 22.479-21.536 9.844-16.514.09-40.673 11.25-2.278 1.46-8.258 2.596-10.482 1.684-8.943-2.978-16.302-8.102-22.15-12.664l-11.189 5.646c6.906 8.6 17.1 12.671 25.541 16.371 6.747 3.214 14.126 2.854 19.029 3.006 25.108.345 48.589-9.297 60.403-10.756 3.458-.53 7.483-6.525 9.05-9.31 9.692-15.872 5.689-18.57-1.085-35.188-3.85-6.233-14.98-8.012-20.828-8.805-60.717-2.574-138.254 18.812-189.584 7.488z"/>
            </g>
            <path d="M200.254 22.83c-10.48.092-22.663.998-37.018 2.965C131.502 31.057 76.74 54.61 59.74 47.425c-7.093-3.207-15.217-7.936-22.664-11.771-9.428-5.157-15.307-2.581-10.574 8.924l62.423 72.537c3.998 6.062 11.772 5 17.658 3.606 41.351-14.459 66.158-9.593 100.5.367 7.945 2.133 11.702.729 17.529-3.72 19.484-16.497 47.016-40.226 47.512-47.582.602-3.396 3.503-23.47-3.132-27.892-15.574-9.31-31.308-19.387-68.738-19.063zm33.844 28.654c4.417 3.761 3.347 8.843.378 13.416-7.825 12.612-14.648 22.207-28.006 33.054-2.31 1.67-4.598 3.386-7.164 3.508-15.774-1.87-6.317-12.143-83.092 1.314-5.23.091-7.551-.908-9.443-2.683l-29.272-36.73c-2.844-5.218 2.686-4.34 6.233-4.362 43.133.106 104.006-39.048 150.366-7.517z"/>
            <path d="M117.812 40.972c3.039 20.833 3.86 41.666 4.316 62.5l16.252-.475c15.704-22.176 9.492-43.628 5.885-65.82zM197.469 24.583c-4.472-18.217-22.908-8.7-25.14-.573l-13.57 77.09 16.963.948c11.095-27.016 24.251-61.9 30.01-68.547z"/>
        </g>
    </svg>
    </symbol>
    <symbol xmlns="http://www.w3.org/2000/svg" id="man5"><svg xmlns="http://www.w3.org/2000/svg" width="300" height="400">
        <g fill-rule="evenodd">
            <g fill="#b93c3c" style="fill: var(--red-color)">
                <path d="M60.443 226.858c101.51 10.776 95.086-15.762 180.061-18.577 18.885-2.745 17.635-17.46-.449-16.017-90.368 2.243-58.78 34.94-177.693 16.092-28.997-5.176-24.264 14.567-1.92 18.502z"/>
                <path d="M151.707 183.66c1.312-3.925-7.997-10.182-13.22-3.473-4.83 7.48-6.263 12.156-10.86 17.42-1.958 2.393-2.24 7.725-.216 9.268 7.568 6.198 6.724 4.784 11.5 14.738l20.53-1.762c-6.52-8.59-7.597-7.835-10.131-16.424-1.165-9.327-.808-10.176 2.397-19.768zM177.5 145.697c-2.072-2.164-3.31-2.932-6.213 0l-15.392 15.541c-1.347 1.5-1.371 3.705-.263 4.97l9.17 8.834c4.353 4.252 5.463 7.314 2.9 12.335-3.42 9.617-5.987 19.368-6.097 24.708l21.18-3.487c-3.959-9.817-3.87-12.357 2.866-21.646 5.559-6.327 10.933-7.774 5.995-16.418zM199.904 226.053c-2.38 0-5.116.352-7.987.676-25.981 4.239-44.632 13.661-87.783 12.14-5.841.03-10.797 3.108-10.592 7.59.416 9.893 7.7 62.177 8.305 66.889.853 6.417 9.79 6.988 10.967 1.341.215-1.034.221-3.957.097-7.996.548-1.143 1.398-2.02 2.309-2.183l56.982-5.092c.58.007 1.015.545 1.32 1.33-.441 20.093-.684 39.742-.253 46.623.123 1.52.051 3.12 1.57 4.486 3.627 3.034 24.108 1.364 29.408-1.947 1.469-1.078 2-1.583 2.198-3.83-2.961-33.992-.668-77.217 1.605-110.873.597-7.453-2.911-9.155-8.146-9.154zm-26.98 16.763c5.651-1.389 2.021 15.829.087 15.877l-58.828 4.612c-5.127-1.025-4.88-13.066-1.422-13.229 26.638-.896 35.744-3.181 60.162-7.26zm-.13 29.153c1.706-.13 2.018 12.384-.38 12.586l-57.321 4.797c-4.101-1.151-4.352-11.962-.78-12.493z"/>
                <path d="M152.8 242.844l-19.232.634-5.291 90.56c-.752 10.292 4.492 20.61 11.24 20.763l18.743-6.547z"/>
                <path d="M91.707 351.464l.846 8.027c54.246 18.284 41.636-8.576 96.894-15.15l-.634-4.929c-42.242-2.987-64.353 13.18-97.106 12.052z"/>
                <path d="M86.527 292.03c-4.79-14.349-18.047-11.53-15.57.886 13.897 43.448 17.943 67.497 19.8 70.858 10.792 18.229 18.402 13.454 19.078-2.434.112-4.849-14.234-43.494-23.308-69.31z"/>
                <path d="M43.84 321.036c-8.36-1.305-7.6 9.084-3.317 11.288 59.847 26.467 123.838-8.866 177.967-5.691 2.058.369 5.312 1.564 8.294 3.202 9.557 5.048 3.734 19.51-.976 22.479-21.536 9.844-16.514.09-40.673 11.25-2.278 1.46-8.258 2.596-10.482 1.684-8.943-2.978-16.302-8.102-22.15-12.664l-11.189 5.646c6.906 8.6 17.1 12.671 25.541 16.371 6.747 3.214 14.126 2.854 19.029 3.006 25.108.345 48.589-9.297 60.403-10.756 3.458-.53 7.483-6.525 9.05-9.31 9.692-15.872 5.689-18.57-1.085-35.188-3.85-6.233-14.98-8.012-20.828-8.805-60.717-2.574-138.254 18.812-189.584 7.488z"/>
            </g>
            <path d="M119.395 21.023c-6.92 4.626-10.652 5.815-13.495 15.583-.451 1.58-.793 7.782 1.288 12.037 18.032 17.664-47.141 56.041-70.44 72.194-15.165 9.94-10.008 21.087 9.883 11.318 25.665-11.936 70.901-25.835 79.792-61.766.086-3.942 2.715-5.602 6.473-6.54 5.752-1.41.7-27.485-2.606-34.281-3.305-6.796-8.657-9.842-10.895-8.545z"/>
            <path d="M100.883 86.2c1.198 4.583 5.375 16.356 4.613 21.29-3.513 9.018-8.424 12.446-10.385 22.042-.841 5.28 16.423 21.6 21.38 19.02 6.334-4.297 9.7-13.186 9.595-17.18-.687-19.204-11.628-32.803-12.023-54.911zM126.675 28.118c41.276 15.334 59.018-16.083 96.332-24.195 10.699-2.326 21.354 2.298 29.564 4.114 17.756 4.461 3.733 31.363-9.82 25.11-32.281-15.944-59.96 8.059-90.6 15.564-2.266.41-3.65-2.678-5.098-4.775-4.689-6.794-11.765-1.189-17.535-3.308z"/>
            <path d="M175.275 35.005l-28.048 6.835c8.697 10.69-11.9 52.85-22.254 80.496l25.17-3.802c2.53-28.77 18.63-55.422 25.132-83.529z"/>
            <path d="M114.246 64.55c13.95 34.475 61.058-13.835 91.153-11.049v19.192c-30.88-5.599-82.694 35.118-95.04 6.633z"/>
            <path d="M199.124 44.254c-2.46-.46-9.488 7.166-9.471 9.927.608 24.199.074 47.857-1.896 72.055-.714 11.333 21.106 2.356 22.009-3.012 3.033-25.336 1.728-73.548-.228-74.743-3.02-1.99-5.939-3.318-10.414-4.227z"/>
            <path d="M112.933 120.888c96.527-30.72 146.762-8.13 149.572-2.228 1.897 3.24 1.487 9.99-.507 13.371-16.651 24.78-105.629-38.901-145.753 10.582z"/>
        </g>
    </svg>
    </symbol>
    <symbol xmlns="http://www.w3.org/2000/svg" id="man6"><svg xmlns="http://www.w3.org/2000/svg" width="300" height="400">
        <g fill-rule="evenodd">
            <g fill="#b93c3c" style="fill: var(--red-color)">
                <path d="M60.443 226.858c101.51 10.776 95.086-15.762 180.061-18.577 18.885-2.745 17.635-17.46-.449-16.017-90.368 2.243-58.78 34.94-177.693 16.092-28.997-5.176-24.264 14.567-1.92 18.502z"/>
                <path d="M151.707 183.66c1.312-3.925-7.997-10.182-13.22-3.473-4.83 7.48-6.263 12.156-10.86 17.42-1.958 2.393-2.24 7.725-.216 9.268 7.568 6.198 6.724 4.784 11.5 14.738l20.53-1.762c-6.52-8.59-7.597-7.835-10.131-16.424-1.165-9.327-.808-10.176 2.397-19.768zM177.5 145.697c-2.072-2.164-3.31-2.932-6.213 0l-15.392 15.541c-1.347 1.5-1.371 3.705-.263 4.97l9.17 8.834c4.353 4.252 5.463 7.314 2.9 12.335-3.42 9.617-5.987 19.368-6.097 24.708l21.18-3.487c-3.959-9.817-3.87-12.357 2.866-21.646 5.559-6.327 10.933-7.774 5.995-16.418zM199.904 226.053c-2.38 0-5.116.352-7.987.676-25.981 4.239-44.632 13.661-87.783 12.14-5.841.03-10.797 3.108-10.592 7.59.416 9.893 7.7 62.177 8.305 66.889.853 6.417 9.79 6.988 10.967 1.341.215-1.034.221-3.957.097-7.996.548-1.143 1.398-2.02 2.309-2.183l56.982-5.092c.58.007 1.015.545 1.32 1.33-.441 20.093-.684 39.742-.253 46.623.123 1.52.051 3.12 1.57 4.486 3.627 3.034 24.108 1.364 29.408-1.947 1.469-1.078 2-1.583 2.198-3.83-2.961-33.992-.668-77.217 1.605-110.873.597-7.453-2.911-9.155-8.146-9.154zm-26.98 16.763c5.651-1.389 2.021 15.829.087 15.877l-58.828 4.612c-5.127-1.025-4.88-13.066-1.422-13.229 26.638-.896 35.744-3.181 60.162-7.26zm-.13 29.153c1.706-.13 2.018 12.384-.38 12.586l-57.321 4.797c-4.101-1.151-4.352-11.962-.78-12.493z"/>
                <path d="M152.8 242.844l-19.232.634-5.291 90.56c-.752 10.292 4.492 20.61 11.24 20.763l18.743-6.547z"/>
                <path d="M91.707 351.464l.846 8.027c54.246 18.284 41.636-8.576 96.894-15.15l-.634-4.929c-42.242-2.987-64.353 13.18-97.106 12.052z"/>
                <path d="M86.527 292.03c-4.79-14.349-18.047-11.53-15.57.886 13.897 43.448 17.943 67.497 19.8 70.858 10.792 18.229 18.402 13.454 19.078-2.434.112-4.849-14.234-43.494-23.308-69.31z"/>
                <path d="M43.84 321.036c-8.36-1.305-7.6 9.084-3.317 11.288 59.847 26.467 123.838-8.866 177.967-5.691 2.058.369 5.312 1.564 8.294 3.202 9.557 5.048 3.734 19.51-.976 22.479-21.536 9.844-16.514.09-40.673 11.25-2.278 1.46-8.258 2.596-10.482 1.684-8.943-2.978-16.302-8.102-22.15-12.664l-11.189 5.646c6.906 8.6 17.1 12.671 25.541 16.371 6.747 3.214 14.126 2.854 19.029 3.006 25.108.345 48.589-9.297 60.403-10.756 3.458-.53 7.483-6.525 9.05-9.31 9.692-15.872 5.689-18.57-1.085-35.188-3.85-6.233-14.98-8.012-20.828-8.805-60.717-2.574-138.254 18.812-189.584 7.488z"/>
            </g>
            <path d="M138.731 9.16c-6.661-6.95-9.144-5.771-14.01-1.951-3.9 3.998-7.614 6.227-9.403 14.145-.967 4.359-.136 13.042 1.951 20.487 1.287 3.662 6.02 7.381 11.005 8.78 1.71.542-.622 8.672-2.439 13.007l18.21-.975c-1.541-4.9-5.491-12.838-4.552-14.308 5.1-7.982 10.835-18.724 10.86-22.763.07-3.682-5.626-10.163-11.622-16.422z"/>
            <path d="M64.55 77.828c-11.593-1.2-23.54-15.849 3.028-14.308 42.501 3.245 75.194-.247 131.69-25.611 6.908-1.686 58.324 12.344 60.432 17.56 2.654 7.908-1.029 30.331-12.666 29.494-16.472-5.205-53.428-24.456-66.374-20.984-49.456 12.159-66.638 17.118-116.11 13.849z"/>
            <path d="M133.871 80.643c-4.023-2.139-24.469 13.505-24.897 16.39-.845 5.325 4.787 12.92 2.3 14.19-35.138 18.204-47.383 19.283-65.468 22.486-21.425 4.198-16.073 15.92 0 14.165 50.84-5.295 39.72-11.786 92.174-21.982 4.079-.896 11.869-18.057 11.869-24.792 0-5.73-10.277-17.435-15.978-20.457zM160.507 89.884c-2.032-.118-2.566.662-2.08 1.814 10.907 25.897 58.795 61.458 61.326 56.12 7.436-17.119 5.18-19.57 2.029-24.69-11.856-19.095-43.212-31.989-61.275-33.244z"/>
        </g>
    </svg>
    </symbol>
    <symbol xmlns="http://www.w3.org/2000/svg" id="man7"><svg xmlns="http://www.w3.org/2000/svg" width="300" height="400">
        <g fill-rule="evenodd">
            <g fill="#b93c3c" style="fill: var(--red-color)">
                <path d="M60.443 226.858c101.51 10.776 95.086-15.762 180.061-18.577 18.885-2.745 17.635-17.46-.449-16.017-90.368 2.243-58.78 34.94-177.693 16.092-28.997-5.176-24.264 14.567-1.92 18.502z"/>
                <path d="M151.707 183.66c1.312-3.925-7.997-10.182-13.22-3.473-4.83 7.48-6.263 12.156-10.86 17.42-1.958 2.393-2.24 7.725-.216 9.268 7.568 6.198 6.724 4.784 11.5 14.738l20.53-1.762c-6.52-8.59-7.597-7.835-10.131-16.424-1.165-9.327-.808-10.176 2.397-19.768zM177.5 145.697c-2.072-2.164-3.31-2.932-6.213 0l-15.392 15.541c-1.347 1.5-1.371 3.705-.263 4.97l9.17 8.834c4.353 4.252 5.463 7.314 2.9 12.335-3.42 9.617-5.987 19.368-6.097 24.708l21.18-3.487c-3.959-9.817-3.87-12.357 2.866-21.646 5.559-6.327 10.933-7.774 5.995-16.418zM199.904 226.053c-2.38 0-5.116.352-7.987.676-25.981 4.239-44.632 13.661-87.783 12.14-5.841.03-10.797 3.108-10.592 7.59.416 9.893 7.7 62.177 8.305 66.889.853 6.417 9.79 6.988 10.967 1.341.215-1.034.221-3.957.097-7.996.548-1.143 1.398-2.02 2.309-2.183l56.982-5.092c.58.007 1.015.545 1.32 1.33-.441 20.093-.684 39.742-.253 46.623.123 1.52.051 3.12 1.57 4.486 3.627 3.034 24.108 1.364 29.408-1.947 1.469-1.078 2-1.583 2.198-3.83-2.961-33.992-.668-77.217 1.605-110.873.597-7.453-2.911-9.155-8.146-9.154zm-26.98 16.763c5.651-1.389 2.021 15.829.087 15.877l-58.828 4.612c-5.127-1.025-4.88-13.066-1.422-13.229 26.638-.896 35.744-3.181 60.162-7.26zm-.13 29.153c1.706-.13 2.018 12.384-.38 12.586l-57.321 4.797c-4.101-1.151-4.352-11.962-.78-12.493z"/>
                <path d="M152.8 242.844l-19.232.634-5.291 90.56c-.752 10.292 4.492 20.61 11.24 20.763l18.743-6.547z"/>
                <path d="M91.707 351.464l.846 8.027c54.246 18.284 41.636-8.576 96.894-15.15l-.634-4.929c-42.242-2.987-64.353 13.18-97.106 12.052z"/>
                <path d="M86.527 292.03c-4.79-14.349-18.047-11.53-15.57.886 13.897 43.448 17.943 67.497 19.8 70.858 10.792 18.229 18.402 13.454 19.078-2.434.112-4.849-14.234-43.494-23.308-69.31z"/>
                <path d="M43.84 321.036c-8.36-1.305-7.6 9.084-3.317 11.288 59.847 26.467 123.838-8.866 177.967-5.691 2.058.369 5.312 1.564 8.294 3.202 9.557 5.048 3.734 19.51-.976 22.479-21.536 9.844-16.514.09-40.673 11.25-2.278 1.46-8.258 2.596-10.482 1.684-8.943-2.978-16.302-8.102-22.15-12.664l-11.189 5.646c6.906 8.6 17.1 12.671 25.541 16.371 6.747 3.214 14.126 2.854 19.029 3.006 25.108.345 48.589-9.297 60.403-10.756 3.458-.53 7.483-6.525 9.05-9.31 9.692-15.872 5.689-18.57-1.085-35.188-3.85-6.233-14.98-8.012-20.828-8.805-60.717-2.574-138.254 18.812-189.584 7.488z"/>
            </g>
            <path d="M115.532 3.354c-10.041-1.388-20.49 18.791-21.107 23.986 1.642 11.464 11.662 15.442 13.278 20.178 7.222 25.751 9.331 67.28 11.654 75.32 2.443 8.022 62.095 13.845 66.313 11.736 13.153-8.01 19.151-31.322 7.616-29.214-24.316 3.13-43.9 3.418-49.042.632-4.41-2.698-14.314-48.492-12.065-52.663 2.765-5.515 13.275-12.685 12.01-17.486-1.148-5.104-16.672-30.791-28.657-32.489z"/>
            <path d="M58.84 124.468c-13.384.875-11.9-15.995-.49-18.787 154.19-20.478 42.557-54.033 185.733-75.967 6.246-1.109 5.523 27.023-.788 27.699C98.962 76.13 218.105 98.206 58.84 124.468z"/>
        </g>
    </svg>
    </symbol>
    <symbol xmlns="http://www.w3.org/2000/svg" id="man8"><svg xmlns="http://www.w3.org/2000/svg" width="300" height="400">
        <g fill-rule="evenodd">
            <g fill="#b93c3c" style="fill: var(--red-color)">
                <path d="M60.443 226.858c101.51 10.776 95.086-15.762 180.061-18.577 18.885-2.745 17.635-17.46-.449-16.017-90.368 2.243-58.78 34.94-177.693 16.092-28.997-5.176-24.264 14.567-1.92 18.502z"/>
                <path d="M151.707 183.66c1.312-3.925-7.997-10.182-13.22-3.473-4.83 7.48-6.263 12.156-10.86 17.42-1.958 2.393-2.24 7.725-.216 9.268 7.568 6.198 6.724 4.784 11.5 14.738l20.53-1.762c-6.52-8.59-7.597-7.835-10.131-16.424-1.165-9.327-.808-10.176 2.397-19.768zM177.5 145.697c-2.072-2.164-3.31-2.932-6.213 0l-15.392 15.541c-1.347 1.5-1.371 3.705-.263 4.97l9.17 8.834c4.353 4.252 5.463 7.314 2.9 12.335-3.42 9.617-5.987 19.368-6.097 24.708l21.18-3.487c-3.959-9.817-3.87-12.357 2.866-21.646 5.559-6.327 10.933-7.774 5.995-16.418zM199.904 226.053c-2.38 0-5.116.352-7.987.676-25.981 4.239-44.632 13.661-87.783 12.14-5.841.03-10.797 3.108-10.592 7.59.416 9.893 7.7 62.177 8.305 66.889.853 6.417 9.79 6.988 10.967 1.341.215-1.034.221-3.957.097-7.996.548-1.143 1.398-2.02 2.309-2.183l56.982-5.092c.58.007 1.015.545 1.32 1.33-.441 20.093-.684 39.742-.253 46.623.123 1.52.051 3.12 1.57 4.486 3.627 3.034 24.108 1.364 29.408-1.947 1.469-1.078 2-1.583 2.198-3.83-2.961-33.992-.668-77.217 1.605-110.873.597-7.453-2.911-9.155-8.146-9.154zm-26.98 16.763c5.651-1.389 2.021 15.829.087 15.877l-58.828 4.612c-5.127-1.025-4.88-13.066-1.422-13.229 26.638-.896 35.744-3.181 60.162-7.26zm-.13 29.153c1.706-.13 2.018 12.384-.38 12.586l-57.321 4.797c-4.101-1.151-4.352-11.962-.78-12.493z"/>
                <path d="M152.8 242.844l-19.232.634-5.291 90.56c-.752 10.292 4.492 20.61 11.24 20.763l18.743-6.547z"/>
                <path d="M91.707 351.464l.846 8.027c54.246 18.284 41.636-8.576 96.894-15.15l-.634-4.929c-42.242-2.987-64.353 13.18-97.106 12.052z"/>
                <path d="M86.527 292.03c-4.79-14.349-18.047-11.53-15.57.886 13.897 43.448 17.943 67.497 19.8 70.858 10.792 18.229 18.402 13.454 19.078-2.434.112-4.849-14.234-43.494-23.308-69.31z"/>
                <path d="M43.84 321.036c-8.36-1.305-7.6 9.084-3.317 11.288 59.847 26.467 123.838-8.866 177.967-5.691 2.058.369 5.312 1.564 8.294 3.202 9.557 5.048 3.734 19.51-.976 22.479-21.536 9.844-16.514.09-40.673 11.25-2.278 1.46-8.258 2.596-10.482 1.684-8.943-2.978-16.302-8.102-22.15-12.664l-11.189 5.646c6.906 8.6 17.1 12.671 25.541 16.371 6.747 3.214 14.126 2.854 19.029 3.006 25.108.345 48.589-9.297 60.403-10.756 3.458-.53 7.483-6.525 9.05-9.31 9.692-15.872 5.689-18.57-1.085-35.188-3.85-6.233-14.98-8.012-20.828-8.805-60.717-2.574-138.254 18.812-189.584 7.488z"/>
            </g>
            <path d="M120.79 78.902c-4.9-.897-13.726 19.713-17.34 22.375-20.47 14.835-36.47 16.142-58.928 22.736-11.793 3.536-10.531 14.935 3.169 12.412 22.616-5.155 89.457-10.862 95.468-38.813 1.904-10.71-12.803-15.949-22.37-18.71zM130.574 32.971c1.634-5.083 15.03-13.6 24.352-15.235 9.456-1.036 27.343 45.911 34.26 52.797 13.27 11.972 85.134 48.774 80.164 66.744-2.999 10.131-57.188-18.02-85.497-33.417-15.896-11.317-28.368-30.592-36.262-53.304-1.408-5.019-18.738-12.78-17.017-17.585z"/>
        </g>
    </svg>
    </symbol>
    <symbol xmlns="http://www.w3.org/2000/svg" id="man9"><svg xmlns="http://www.w3.org/2000/svg" width="300" height="400">
        <g fill-rule="evenodd">
            <g fill="#b93c3c" style="fill: var(--red-color)">
                <path d="M60.443 226.858c101.51 10.776 95.086-15.762 180.061-18.577 18.885-2.745 17.635-17.46-.449-16.017-90.368 2.243-58.78 34.94-177.693 16.092-28.997-5.176-24.264 14.567-1.92 18.502z"/>
                <path d="M151.707 183.66c1.312-3.925-7.997-10.182-13.22-3.473-4.83 7.48-6.263 12.156-10.86 17.42-1.958 2.393-2.24 7.725-.216 9.268 7.568 6.198 6.724 4.784 11.5 14.738l20.53-1.762c-6.52-8.59-7.597-7.835-10.131-16.424-1.165-9.327-.808-10.176 2.397-19.768zM177.5 145.697c-2.072-2.164-3.31-2.932-6.213 0l-15.392 15.541c-1.347 1.5-1.371 3.705-.263 4.97l9.17 8.834c4.353 4.252 5.463 7.314 2.9 12.335-3.42 9.617-5.987 19.368-6.097 24.708l21.18-3.487c-3.959-9.817-3.87-12.357 2.866-21.646 5.559-6.327 10.933-7.774 5.995-16.418zM199.904 226.053c-2.38 0-5.116.352-7.987.676-25.981 4.239-44.632 13.661-87.783 12.14-5.841.03-10.797 3.108-10.592 7.59.416 9.893 7.7 62.177 8.305 66.889.853 6.417 9.79 6.988 10.967 1.341.215-1.034.221-3.957.097-7.996.548-1.143 1.398-2.02 2.309-2.183l56.982-5.092c.58.007 1.015.545 1.32 1.33-.441 20.093-.684 39.742-.253 46.623.123 1.52.051 3.12 1.57 4.486 3.627 3.034 24.108 1.364 29.408-1.947 1.469-1.078 2-1.583 2.198-3.83-2.961-33.992-.668-77.217 1.605-110.873.597-7.453-2.911-9.155-8.146-9.154zm-26.98 16.763c5.651-1.389 2.021 15.829.087 15.877l-58.828 4.612c-5.127-1.025-4.88-13.066-1.422-13.229 26.638-.896 35.744-3.181 60.162-7.26zm-.13 29.153c1.706-.13 2.018 12.384-.38 12.586l-57.321 4.797c-4.101-1.151-4.352-11.962-.78-12.493z"/>
                <path d="M152.8 242.844l-19.232.634-5.291 90.56c-.752 10.292 4.492 20.61 11.24 20.763l18.743-6.547z"/>
                <path d="M91.707 351.464l.846 8.027c54.246 18.284 41.636-8.576 96.894-15.15l-.634-4.929c-42.242-2.987-64.353 13.18-97.106 12.052z"/>
                <path d="M86.527 292.03c-4.79-14.349-18.047-11.53-15.57.886 13.897 43.448 17.943 67.497 19.8 70.858 10.792 18.229 18.402 13.454 19.078-2.434.112-4.849-14.234-43.494-23.308-69.31z"/>
                <path d="M43.84 321.036c-8.36-1.305-7.6 9.084-3.317 11.288 59.847 26.467 123.838-8.866 177.967-5.691 2.058.369 5.312 1.564 8.294 3.202 9.557 5.048 3.734 19.51-.976 22.479-21.536 9.844-16.514.09-40.673 11.25-2.278 1.46-8.258 2.596-10.482 1.684-8.943-2.978-16.302-8.102-22.15-12.664l-11.189 5.646c6.906 8.6 17.1 12.671 25.541 16.371 6.747 3.214 14.126 2.854 19.029 3.006 25.108.345 48.589-9.297 60.403-10.756 3.458-.53 7.483-6.525 9.05-9.31 9.692-15.872 5.689-18.57-1.085-35.188-3.85-6.233-14.98-8.012-20.828-8.805-60.717-2.574-138.254 18.812-189.584 7.488z"/>
            </g>
            <path d="M146.226 25.074c.545-9.272-36.812-17.958-33.245-4.27 17.95 62.019-5.543 79.388-66.767 100.841-4.171 1.146-5.269 9.32 1.846 7.116 64.537-20.004 103.842-24.603 98.166-103.687z"/>
            <path d="M121.254 66.289c-5.843-2.202-10.977-5.452-14.363-10.568-.6-.9-2.23-8.686 1.975-9.148 16.174-1.78 7.18-6.608 10.673-7.333 21.63-4.487 52.321-17.632 71.642-22.718 10.802-2.844 17.882-11.073 21.272-10.055 12.271-.891 13.764 25.669 5.868 27.626-31.095 4.564-48.763 2.638-79.858 11.443z"/>
            <path d="M165.12 27.361c.56-10.217-8.39-6.918-11.028 3.186 3.165 28.798-18.621 73.622 5.9 102.02 11.286 13.07 72.51 13.303 84.392 4.714 17.017-14.572 7.853-28.294-2.366-27.88-19.383 1.45-19.42-50.074-27.58-48.9-8.694 1.635.641 48.839-6.381 54.135-11.28 8.357-30.812-3.746-36.187-11.112-14.781-20.253-3.422-56.25-6.75-76.163z"/>
        </g>
    </svg>
    </symbol>
    <symbol xmlns="http://www.w3.org/2000/svg" id="tile-hand"><?xml version="1.0" encoding="UTF-8" standalone="no"?>
        <svg xmlns="http://www.w3.org/2000/svg" width="300" height="470">
            <rect width="300" height="200" y="0" ry="40" fill="#ffab2d" style="fill: var(--tile-back-color)"/>
            <rect width="300" height="200" y="20" ry="40" fill="#c1c1c1" style="fill: var(--secondary-dark-color)"/>
            <rect width="300" height="400" y="70" ry="40" fill="#fff" style="fill: var(--secondary-color)"/>
        </svg>
    </symbol>
    <symbol xmlns="http://www.w3.org/2000/svg" id="tile-option"><?xml version="1.0" encoding="UTF-8" standalone="no"?>
        <svg xmlns="http://www.w3.org/2000/svg" width="300" height="440">
            <rect width="300" height="200" y="0" ry="40" fill="#ffab2d" style="fill: var(--tile-back-color)"/>
            <rect width="300" height="200" y="10" ry="40" fill="#c1c1c1" style="fill: var(--secondary-dark-color)"/>
            <rect width="300" height="400" y="40" ry="40" fill="#fff" style="fill: var(--secondary-color)"/>
        </svg>
    </symbol>
    <symbol xmlns="http://www.w3.org/2000/svg" id="info"><?xml version="1.0" encoding="UTF-8" standalone="no"?>
        <svg xmlns="http://www.w3.org/2000/svg" width="32" height="32">
            <g fill="none" fill-rule="evenodd" transform="translate(2 2)">
                <circle cx="12" cy="12" r="12" stroke="currentColor" stroke-width="2">
                </circle>
                <path fill="currentColor" d="M11 5h2v10h-2zm0 12h2v2h-2z"></path>
            </g>
        </svg>
    </symbol>
</svg>