<svg width="106" height="17" viewBox="0 0 106 17" fill="none" xmlns="http://www.w3.org/2000/svg">
    <g>
        <path d="M1 8.17092V8.17092C1 4.21055 4.77058 1.00004 9.42183 1.00004L96.5782 1.00004C101.229 1.00004 105 4.21055 105 8.17092V8.17092C105 12.1313 101.229 15.3418 96.5782 15.3418L9.42183 15.3418C4.77058 15.3418 1 12.1313 1 8.17092Z" stroke="black" stroke-width="1.36757"/>
        <path d="M56.215 8.04576C56.215 6.05362 54.605 4.43868 52.6191 4.43868C50.6332 4.43868 49.0232 6.05362 49.0232 8.04576C49.0232 10.0379 50.6332 11.6528 52.6191 11.6528C54.605 11.6528 56.215 10.0379 56.215 8.04576Z" fill="#E40000" fill-opacity="0.792706"/>
    </g>
</svg>
