<svg width="36" height="37" viewBox="0 0 36 37" fill="none" xmlns="http://www.w3.org/2000/svg">
<g clip-path="url(#clip0)">
<path d="M19.9287 0.341797C19.2456 0.341797 18.643 0.589565 18.1206 1.0851C17.5447 1.6476 17.1296 2.37081 16.8751 3.25474C16.6206 4.13867 16.4164 4.98577 16.2624 5.79604C16.1084 6.60631 15.8706 7.17885 15.5492 7.51367C14.893 8.22349 14.1764 9.08064 13.3997 10.0851C12.047 11.8396 11.1296 12.8775 10.6474 13.1989H5.14296C4.43314 13.1989 3.82711 13.4501 3.32488 13.9523C2.82265 14.4545 2.57153 15.0605 2.57153 15.7704V28.6275C2.57153 29.3373 2.82265 29.9434 3.32488 30.4456C3.82711 30.9478 4.43314 31.1989 5.14296 31.1989H10.9287C11.2233 31.1989 12.1474 31.4668 13.701 32.0025C15.3483 32.5784 16.7981 33.017 18.0503 33.3184C19.3026 33.6197 20.5715 33.7704 21.8572 33.7704H24.4488C26.3372 33.7704 27.8572 33.2313 29.009 32.1532C30.1608 31.0751 30.73 29.6052 30.7166 27.7436C31.5202 26.7123 31.922 25.5204 31.922 24.1677C31.922 23.873 31.9019 23.5851 31.8617 23.3039C32.3706 22.4065 32.6251 21.4422 32.6251 20.411C32.6251 19.9289 32.5648 19.4668 32.4443 19.0248C33.1006 18.0338 33.4287 16.9422 33.4287 15.7503C33.4287 14.3708 32.9197 13.1722 31.9019 12.1543C30.884 11.1364 29.6787 10.6275 28.2858 10.6275H24.7501C25.393 9.30162 25.7144 8.0159 25.7144 6.77037C25.7144 5.2034 25.48 3.95787 25.0113 3.03376C24.5425 2.10965 23.8595 1.42997 22.9622 0.994699C22.0648 0.559431 21.0537 0.341797 19.9287 0.341797ZM19.9287 2.91323C21.2144 2.91323 22.0715 3.22796 22.5001 3.85742C22.9287 4.48689 23.143 5.45787 23.143 6.77037C23.143 7.56055 22.8215 8.63532 22.1787 9.9947C21.5358 11.3541 21.2144 12.4222 21.2144 13.1989H28.2858C28.9555 13.1989 29.5514 13.4568 30.0738 13.9724C30.5961 14.488 30.8572 15.0873 30.8572 15.7704C30.8572 16.2391 30.7133 16.7815 30.4253 17.3976C30.1374 18.0137 29.7791 18.3284 29.3506 18.3418C29.5514 18.5695 29.7189 18.8876 29.8528 19.296C29.9867 19.7045 30.0537 20.0762 30.0537 20.411C30.0537 21.3351 29.6988 22.132 28.9889 22.8016C29.23 23.2302 29.3506 23.6922 29.3506 24.1878C29.3506 24.6833 29.2334 25.1755 28.999 25.6643C28.7646 26.1532 28.4465 26.5047 28.0447 26.719C28.1117 27.1208 28.1452 27.4958 28.1452 27.844C28.1452 30.0806 26.8595 31.1989 24.2881 31.1989H21.8572C20.1028 31.1989 17.8126 30.7101 14.9867 29.7324C14.9197 29.7056 14.7256 29.6353 14.4041 29.5215C14.0827 29.4076 13.845 29.3239 13.691 29.2704C13.5369 29.2168 13.3026 29.1398 12.9878 29.0393C12.6731 28.9389 12.4186 28.8652 12.2244 28.8184C12.0302 28.7715 11.8093 28.728 11.5615 28.6878C11.3137 28.6476 11.1028 28.6275 10.9287 28.6275H10.2858V15.7704H10.9287C11.143 15.7704 11.3807 15.7101 11.6418 15.5896C11.903 15.469 12.1709 15.2882 12.4454 15.0472C12.72 14.8061 12.9778 14.5684 13.2189 14.334C13.4599 14.0996 13.7278 13.805 14.0224 13.4501C14.3171 13.0951 14.5481 12.8105 14.7155 12.5963C14.8829 12.382 15.0939 12.1074 15.3483 11.7726C15.6028 11.4378 15.7568 11.2369 15.8104 11.1699C16.547 10.2592 17.0626 9.64983 17.3572 9.3418C17.9064 8.7659 18.3048 8.03265 18.5526 7.14202C18.8003 6.2514 19.0046 5.41099 19.1653 4.62082C19.326 3.83064 19.5805 3.26144 19.9287 2.91323ZM4.99445 15.709H8.27128V28.7034H4.94925L4.99445 15.709Z" fill="black"/>
</g>
<defs>
<clipPath id="clip0">
<rect y="0.341797" width="36" height="36" fill="white"/>
</clipPath>
</defs>
</svg>
